
<svg width="1326" height="795" viewBox="0 0 1326 795" fill="none" xmlns="http://www.w3.org/2000/svg">
<path d="M577 483.556L577 508L534 508L534 398L569.117 312.444L620 312.444L620 288L706 288L706 312.444L756.883 312.444L792 398L792 508L749 508L749 483.556L577 483.556ZM574.133 373.556L751.867 373.556L736.817 336.889L589.183 336.889L574.133 373.556ZM598.5 446.889C604.472 446.889 609.551 445.109 613.736 441.548C617.922 437.987 620.01 433.656 620 428.556C620 423.463 617.912 419.136 613.736 415.576C609.561 412.015 604.482 410.23 598.5 410.222C592.528 410.222 587.454 412.007 583.278 415.576C579.102 419.144 577.01 423.471 577 428.556C577 433.648 579.093 437.979 583.278 441.548C587.463 445.117 592.537 446.897 598.5 446.889ZM727.5 446.889C733.472 446.889 738.551 445.109 742.736 441.548C746.922 437.987 749.01 433.656 749 428.556C749 423.463 746.912 419.136 742.736 415.576C738.561 412.015 733.482 410.23 727.5 410.222C721.528 410.222 716.454 412.007 712.278 415.576C708.102 419.144 706.01 423.471 706 428.556C706 433.648 708.093 437.979 712.278 441.548C716.463 445.117 721.537 446.897 727.5 446.889Z" fill="#FFC727"/>
<mask id="mask0_651_335" style="mask-type:luminance" maskUnits="userSpaceOnUse" x="0" y="0" width="1326" height="795">
<path d="M1326 0H0V795H1326V0Z" fill="white"/>
</mask>
<g mask="url(#mask0_651_335)">
<path d="M459.308 578.562L356.523 687.996C322.502 723.783 276.563 743.788 228.737 743.636C180.912 743.484 135.086 723.188 101.267 687.182C67.449 651.175 48.3861 602.382 48.242 551.46C48.0975 500.538 66.8836 451.625 100.497 415.403L254.019 251.944C253.94 249.064 253.885 246.179 253.885 243.286C253.87 218.943 256.805 194.699 262.618 171.156L66.8765 379.566C24.2555 425.271 0.38453 487.099 0.492553 551.505C0.600576 615.911 24.6788 677.647 67.4528 723.188C110.227 768.73 168.21 794.365 228.701 794.477C289.192 794.594 347.26 769.177 390.186 723.797L492.967 614.363L459.308 578.562Z" fill="url(#paint0_linear_651_335)"/>
<path d="M807.847 794.988C777.826 795.041 748.091 788.78 720.351 776.562C692.612 764.348 667.409 746.414 646.197 723.797L356.533 415.385C313.759 369.715 289.758 307.836 289.801 243.339C289.844 178.842 313.927 117 356.762 71.394C399.597 25.7886 457.68 0.148718 518.259 0.105523C578.834 0.0623297 636.951 25.6194 679.842 71.1637L969.506 379.575C1001.49 413.601 1023.28 456.965 1032.11 504.184C1040.94 551.398 1036.41 600.343 1019.11 644.82C1001.8 689.298 972.488 727.303 934.881 754.039C897.275 780.77 853.065 795.019 807.847 794.988ZM679.842 687.987C713.878 723.703 759.794 743.641 807.582 743.458C855.367 743.274 901.147 722.979 934.94 686.999C968.729 651.024 987.79 602.28 987.962 551.403C988.135 500.521 969.409 451.629 935.864 415.394L646.201 106.982C629.433 88.87 609.468 74.4692 587.449 64.6095C565.434 54.7498 541.803 49.6263 517.919 49.5342C494.031 49.4416 470.365 54.3826 448.284 64.0719C426.202 73.7612 406.136 88.0078 389.247 105.99C372.357 123.972 358.977 145.335 349.877 168.848C340.776 192.361 336.136 217.558 336.223 242.989C336.309 268.42 341.121 293.581 350.382 317.023C359.642 340.465 373.167 361.724 390.179 379.575L679.842 687.987Z" fill="url(#paint1_linear_651_335)"/>
<path d="M935.851 71.1712L833.07 180.604L866.712 216.423L969.493 106.99C1003.53 71.2745 1049.44 51.3351 1097.23 51.5194C1145.02 51.7041 1190.8 71.9977 1224.59 107.976C1258.38 143.953 1277.44 192.696 1277.61 243.576C1277.79 294.456 1259.06 343.345 1225.51 379.583L1071.87 543.167C1072.65 570.439 1069.72 597.689 1063.18 624.067L1259.16 415.401C1302.03 369.754 1326.12 307.842 1326.12 243.286C1326.12 178.731 1302.03 116.819 1259.16 71.1712C1216.28 25.5236 1158.14 -0.121094 1097.5 -0.121094C1036.87 -0.121094 978.725 25.5236 935.851 71.1712Z" fill="url(#paint2_linear_651_335)"/>
</g>
<defs>
<linearGradient id="paint0_linear_651_335" x1="-13.2971" y1="558.862" x2="1393.93" y2="314.565" gradientUnits="userSpaceOnUse">
<stop stop-color="#E7267A"/>
<stop offset="0.502" stop-color="#64328A"/>
<stop offset="1" stop-color="#2B4B9B"/>
</linearGradient>
<linearGradient id="paint1_linear_651_335" x1="-7.38977" y1="584.346" x2="1387.51" y2="241.557" gradientUnits="userSpaceOnUse">
<stop stop-color="#E7267A"/>
<stop offset="0.502" stop-color="#64328A"/>
<stop offset="1" stop-color="#2B4B9B"/>
</linearGradient>
<linearGradient id="paint2_linear_651_335" x1="-2.14702" y1="609.085" x2="1407.21" y2="364.56" gradientUnits="userSpaceOnUse">
<stop stop-color="#E7267A"/>
<stop offset="0.502" stop-color="#64328A"/>
<stop offset="1" stop-color="#2B4B9B"/>
</linearGradient>
</defs>
</svg>
